<?xml version='1.0' encoding='UTF-8'?>
<svg x="0px" y="0px" viewBox="0 0 32 32" version="1.1" xmlns="http://www.w3.org/2000/svg" xmlns:xlink="http://www.w3.org/1999/xlink" xml:space="preserve" id="Layer_1" style="enable-background:new 0 0 32 32">
  <style type="text/css">
	.Black{fill:#737374;}
	.Yellow{fill:#FCB01B;}
	.Green{fill:#129C49;}
	.Blue{fill:#387CB7;}
	.Red{fill:#D02127;}
	.White{fill:#FFFFFF;}
	.st0{opacity:0.5;}
	.st1{opacity:0.75;}
	.st2{opacity:0.25;}
	.st3{display:none;fill:#737374;}
</style>
  <circle cx="21" cy="11" r="3" class="Yellow" />
  <polygon points="20,24 10,14 6,18 6,24 " class="Green" />
  <g class="st0">
    <polygon points="22,24 18,20 20,18 26,24  " class="Green" />
  </g>
  <polygon points="24,6 28,6 28,10.1 30,10.1 30,4 24,4 " class="Blue" />
  <polygon points="4,10.1 4,6 8,6 8,4 2,4 2,10.1 " class="Blue" />
  <polygon points="28,22 28,26 24,26 24,28 30,28 30,22 " class="Blue" />
  <g class="st0">
    <path d="M30,20h-2v-8h2V20z M2,20h2v-8H2V20z M10,4v2h12V4H10z M22,26H10v2h12V26z" class="Black" />
  </g>
  <polygon points="4,26 4,22 2,22 2,28 8,28 8,26 " class="Blue" />
</svg>