<?xml version='1.0' encoding='UTF-8'?>
<svg x="0px" y="0px" viewBox="0 0 32 32" version="1.1" xmlns="http://www.w3.org/2000/svg" xmlns:xlink="http://www.w3.org/1999/xlink" xml:space="preserve" id="Layer_1" style="enable-background:new 0 0 32 32">
  <style type="text/css">
	.Black{fill:#737374;}
	.Yellow{fill:#FCB01B;}
	.Green{fill:#129C49;}
	.Blue{fill:#387CB7;}
	.Red{fill:#D02127;}
	.White{fill:#FFFFFF;}
	.st0{opacity:0.5;}
	.st1{opacity:0.75;}
	.st2{opacity:0.25;}
	.st3{display:none;fill:#737374;}
</style>
  <circle cx="21" cy="11" r="3" class="Yellow" />
  <polygon points="20,24 10,14 6,18 6,24 " class="Green" />
  <g class="st0">
    <polygon points="22,24 18,20 20,18 26,24  " class="Green" />
  </g>
  <path d="M2,10V4h6v2H4v4H2z M28,22v4h-4v2h6v-6H28z M2,22v6h6v-2H4v-4H2z M28,10V6h-4V4h6v6H28z" class="Blue" />
  <g class="st0">
    <path d="M22,6H10V4h12V6z M4,12H2v8h2V12z M30,12h-2v8h2V12z M22,26H10v2h12V26z" class="Black" />
  </g>
</svg>